Coordinates
version=1
nRows=15
nColumns=38
inDegrees=yes

Units are S.I. units (second, meters, Newtons, ...)
Angles are in degrees.

endheader
time	pelvis_tilt	pelvis_list	pelvis_rotation	pelvis_tx	pelvis_ty	pelvis_tz	hip_flexion_r	hip_adduction_r	hip_rotation_r	knee_angle_r	ankle_angle_r	subtalar_angle_r	mtp_angle_r	hip_flexion_l	hip_adduction_l	hip_rotation_l	knee_angle_l	ankle_angle_l	subtalar_angle_l	mtp_angle_l	lumbar_extension	lumbar_bending	lumbar_rotation	arm_flex_r	arm_add_r	arm_rot_r	elbow_flex_r	pro_sup_r	wrist_flex_r	wrist_dev_r	arm_flex_l	arm_add_l	arm_rot_l	elbow_flex_l	pro_sup_l	wrist_flex_l	wrist_dev_l
      2.12000000	      0.02506310	      2.14995727	     -1.68985873	      0.95125702	      0.98018345	     -0.26126994	     15.27822705	     -5.61802675	     -7.93817155	    -67.69437788	     -4.72328859	    -16.30632854	      0.00000000	     11.96076862	      6.88388189	     -1.52001525	    -17.51063342	      4.47952548	    -10.59887329	      0.00000000	     -9.85487119	     -2.66421007	      0.00961275	     -0.01045481	    -10.67313287	     27.90979683	     44.57852870	     44.37871924	      0.00000000	      0.00000000	      0.85511367	     -8.93702008	     39.51524990	     27.80127873	     44.37871924	      0.00000000	      0.00000000
      2.13000000	     -0.04090967	      1.82567765	     -1.30121769	      0.96366388	      0.98185876	     -0.26226987	     16.81962054	     -5.16865832	     -7.97414650	    -67.36871571	     -3.82142093	    -16.17174156	      0.00000000	     10.81741491	      6.66234400	     -0.99086428	    -16.84599403	      4.98927264	    -10.32763586	      0.00000000	     -9.80868404	     -2.12873273	     -0.77082406	     -0.51216484	    -10.64792204	     28.01673749	     44.36702059	     44.38035140	      0.00000000	      0.00000000	      1.86473897	     -8.96688826	     39.46130625	     28.05247223	     44.38035140	      0.00000000	      0.00000000
      2.14000000	     -0.00402516	      1.33813297	     -0.79487592	      0.97622201	      0.98353655	     -0.26332574	     18.08423826	     -4.68323140	     -8.23749763	    -66.68484115	     -2.96807607	    -14.95461167	      0.00000000	      9.62208289	      6.33408876	      0.05344922	    -16.25610822	      5.33753641	    -10.53365581	      0.00000000	     -9.84646558	     -1.42257450	     -1.35039318	      0.04407163	    -10.77896490	     32.48365789	     40.71060891	     44.52214578	      0.00000000	      0.00000000	      2.84865683	     -9.34369168	     40.21810040	     29.23314953	     44.52214578	      0.00000000	      0.00000000
      2.15000000	     -0.05931322	      1.04614129	     -0.28124139	      0.98873357	      0.98473841	     -0.26450058	     19.32779870	     -4.39218406	     -8.69171509	    -65.63803975	     -2.08490355	    -14.90140456	      0.00000000	      8.29579283	      6.14117796	      0.57073793	    -15.14740545	      5.78699430	    -10.26114370	      0.00000000	     -9.77926896	     -0.92672535	     -2.00530951	     -0.67658571	    -10.76189953	     32.54360643	     40.42469939	     44.52558281	      0.00000000	      0.00000000	      3.89511677	     -9.38219795	     40.14761130	     29.55567805	     44.52558281	      0.00000000	      0.00000000
      2.16000000	     -0.08468284	      0.77037710	      0.21472699	      1.00142058	      0.98565934	     -0.26564206	     20.45665884	     -4.15932667	     -9.10495484	    -64.30813918	     -1.43449930	    -14.65912448	      0.00000000	      7.10307410	      5.96340502	      1.19762838	    -14.41395178	      6.17499327	    -10.27791931	      0.00000000	     -9.69628802	     -0.44884930	     -2.64838456	     -1.39167634	    -10.74141253	     32.58011401	     40.02213101	     44.52956716	      0.00000000	      0.00000000	      4.93493263	     -9.46398239	     40.10988116	     30.02545418	     44.52956716	      0.00000000	      0.00000000
      2.17000000	     -0.05690377	      0.56011744	      0.76381810	      1.01414787	      0.98632465	     -0.26681814	     21.42123031	     -4.09517267	     -9.72255553	    -62.68769314	     -0.83437391	    -14.51043556	      0.00000000	      5.84063451	      5.83269097	      1.89163074	    -13.65184313	      6.61068219	    -10.29064676	      0.00000000	     -9.68380913	     -0.05043200	     -3.30343699	     -2.03619178	    -10.65557144	     32.59354290	     39.46118626	     44.53532913	      0.00000000	      0.00000000	      5.89976971	     -9.65942914	     40.11732261	     30.74461379	     44.53532913	      0.00000000	      0.00000000
      2.18000000	     -0.13897671	      0.33916503	      1.35242920	      1.02660582	      0.98648211	     -0.26783819	     22.42690557	     -3.97211291	    -10.30625827	    -60.79684471	     -0.34168976	    -14.57771448	      0.00000000	      4.70332745	      5.71359801	      2.98638855	    -12.87433016	      6.61482461	    -11.21761675	      0.00000000	     -9.59194393	      0.32633919	     -4.05133124	     -2.53170505	    -10.45867074	     32.58359182	     38.47025297	     44.54770863	      0.00000000	      0.00000000	      6.74220836	    -10.12092017	     40.19636247	     32.21757699	     44.54770863	      0.00000000	      0.00000000
      2.19000000	     -0.21687311	      0.23243294	      1.88651259	      1.03910057	      0.98632407	     -0.26877525	     23.41537632	     -4.04452054	    -10.92748636	    -58.69646743	     -0.29598533	    -14.64614988	      0.00000000	      3.66034534	      5.62370997	      3.40993354	    -12.23794575	      7.36768776	    -10.91593665	      0.00000000	     -9.48501636	      0.56295551	     -4.75312348	     -3.20361863	    -10.37119122	     32.67340091	     38.01628207	     44.55283801	      0.00000000	      0.00000000	      7.68519015	    -10.36767172	     40.08549011	     32.92685589	     44.55283801	      0.00000000	      0.00000000
      2.20000000	     -0.24590981	      0.15877799	      2.39142520	      1.05160550	      0.98583940	     -0.26953299	     24.12910232	     -4.02264006	    -11.45954515	    -56.21488956	     -0.04073315	    -15.10939432	      0.00000000	      2.55299938	      5.55367088	      4.04136091	    -11.61555553	      7.87507438	    -10.98079095	      0.00000000	     -9.45225927	      0.71928082	     -5.44910349	     -3.51682364	    -10.04403706	     32.96451704	     36.44289607	     44.58151948	      0.00000000	      0.00000000	      8.12338661	    -11.29129243	     39.64395035	     36.08047036	     44.58151948	      0.00000000	      0.00000000
      2.21000000	     -0.28216972	      0.17610154	      2.82000119	      1.06418549	      0.98508157	     -0.27018867	     24.84199746	     -4.15548679	    -12.02062445	    -53.61153782	      0.14337201	    -15.18232588	      0.00000000	      1.52923051	      5.52892356	      4.55638667	    -11.17280836	      8.49453139	    -10.72425756	      0.00000000	     -9.39867510	      0.77687364	     -6.03246203	     -4.19194602	     -9.98219362	     33.08411909	     36.24328290	     44.58381438	      0.00000000	      0.00000000	      9.14710691	    -11.49498768	     39.38887766	     36.43577689	     44.58381438	      0.00000000	      0.00000000
      2.22000000	     -0.18048407	      0.10885149	      3.21201830	      1.07689762	      0.98415877	     -0.27062337	     25.24073354	     -4.11330746	    -12.59128848	    -50.65444536	      0.28214234	    -15.25230940	      0.00000000	      0.35298876	      5.40334356	      5.03922703	    -10.72225341	      9.21767339	    -10.66498184	      0.00000000	     -9.51908984	      0.91197845	     -6.52062858	     -4.86224777	     -9.91772686	     33.19081829	     35.93257590	     44.58707455	      0.00000000	      0.00000000	     10.15550779	    -11.72051090	     39.14293488	     37.11039277	     44.58707455	      0.00000000	      0.00000000
      2.23000000	     -0.05615156	      0.11856102	      3.56013962	      1.08965315	      0.98300074	     -0.27091619	     25.75837727	     -4.30912564	    -13.70818276	    -47.77470721	     -0.33951695	    -15.50951043	      0.00000000	     -0.80852327	      5.36362523	      5.59372226	    -10.35879506	      9.84106511	    -10.90188090	      0.00000000	     -9.71011399	      0.93137929	     -7.17621082	     -4.74866136	     -9.73063272	     35.48525562	     33.85045368	     44.68743891	      0.00000000	      0.00000000	      8.69804783	    -12.35118427	     31.91059189	     44.05491971	     44.68743891	      0.00000000	      0.00000000
      2.24000000	      0.10372673	      0.19413868	      3.87806409	      1.10258534	      0.98144241	     -0.27101983	     25.51828276	     -3.96492929	    -13.25720005	    -43.88545948	      0.75757159	    -14.72190286	      0.00000000	     -2.04481039	      5.38460856	      6.03963128	     -9.93325696	     10.68456414	    -11.03709866	      0.00000000	     -9.89976082	      0.87334866	     -7.57551465	     -5.38982782	     -9.61842450	     35.54352187	     33.58310905	     44.69159106	      0.00000000	      0.00000000	      9.71003978	    -12.62313408	     31.80278648	     44.69249784	     44.69159106	      0.00000000	      0.00000000
      2.25000000	      0.33439715	      0.33032387	      4.15378130	      1.11550434	      0.97984135	     -0.27110072	     25.50420322	     -3.99937929	    -13.63426224	    -40.33465964	      0.93385014	    -13.71733580	      0.00000000	     -3.20628477	      5.42609517	      6.34881497	     -9.89777633	     11.47337938	    -10.89068313	      0.00000000	    -10.20331244	      0.76486711	     -7.94157320	     -5.91615731	     -9.50118777	     35.54989568	     33.30110635	     44.69563932	      0.00000000	      0.00000000	     10.66422501	    -12.96927212	     31.73869120	     45.66538047	     44.69563932	      0.00000000	      0.00000000
      2.26000000	      0.46549277	      0.44343953	      4.36991342	      1.12852526	      0.97806385	     -0.27092387	     26.18295487	     -4.46660103	    -15.94342179	    -37.44701260	     -1.34686356	    -13.74139114	      0.00000000	     -4.16747349	      5.43903366	      6.47328663	    -10.00897255	     12.41637546	    -10.59784231	      0.00000000	    -10.41702117	      0.64038783	     -8.27670890	     -6.43414124	     -9.03272030	     35.58279611	     31.95236623	     44.71657163	      0.00000000	      0.00000000	     10.87728368	    -13.98591591	     31.45085292	     49.04757577	     44.71657163	      0.00000000	      0.00000000
